                                Fast Five (2011)

                             Action | Crime | Drama
                                     130 min

                                 
                                   Storyline

              
Dominic and his crew find themselves on the wrong side of the law once again as they try to switch lanes between a ruthless drug lord and a relentless federal agent.


SUPPORTED DEVICES

IPOD TOUCH 1G, 2G, 3G

IPHONE 3G,4G

SONY PSP 

-----------------------------------------------------------------------------------

Format                           : MPEG-4
Codec ID                         : M4V 
File size                        : 791 MiB
Duration                         : 2h 4mn
Overall bit rate                 : 885 Kbps
Movie name                       : Video_Fast.Five.2011.DVDRiP.H264.550MB.mkv
Genre                            : MyVideo
Writing application              : DigiArty AV Encoder Core


Video
ID                               : 1
Format                           : MPEG-4 Visual
Format settings, BVOP            : No
Format settings, QPel            : No
Format settings, GMC             : No warppoints
Format settings, Matrix          : Default (H.263)
Codec ID                         : 20
Duration                         : 2h 4mn
Bit rate                         : 753 Kbps
Width                            : 320 pixels
Height                           : 240 pixels
Display aspect ratio             : 4:3
Frame rate mode                  : Constant
Frame rate                       : 25.000 fps
Color space                      : YUV
Chroma subsampling               : 4:2:0
Bit depth                        : 8 bits
Scan type                        : Progressive
Compression mode                 : Lossy
Bits/(Pixel*Frame)               : 0.392
Stream size                      : 673 MiB (85%)
Writing library                  : DigiArty AV Encoder Core

Audio
ID                               : 2
Format                           : AAC
Format/Info                      : Advanced Audio Codec
Format profile                   : LC
Codec ID                         : 40
Duration                         : 2h 4mn
Bit rate mode                    : Variable
Bit rate                         : 128 Kbps
Channel(s)                       : 2 channels
Channel positions                : Front: L R
Sampling rate                    : 44.1 KHz
Compression mode                 : Lossy
Stream size                      : 114 MiB (14%)

-------------------------------------------------------------------------------
BROUGHT TO YOU BY BRiNGiT